ffmpeg started on 2026-01-13 at 10:35:57
Report written to "D:\Convert\FFMetrics\reports\psnr_report-6.txt"
Log level: 32
Command line:
ffmpeg -hide_banner -nostdin -r 24000/1001 -i "F:\\Convert\\files\\[DC] Make Heroine ga Oosugiru - 07_Telegram_HEVC(119).mkv" -r 24000/1001 -i "F:\\Convert\\files\\[DC] Make Heroine ga Oosugiru - 07_Telegram.mp4" -lavfi "[0:v]settb=AVTB,setpts=PTS-STARTPTS,format=pix_fmts=yuv420p10le,fps=24000/1001,scale=1920:1080:flags=lanczos:param0=3:out_range=limited:out_color_matrix=bt709:out_chroma_loc=left,setsar=1/1,setdar=(1920/1080)*(1/1),colorspace=format=yuv420p10:range=tv:primaries=bt709:trc=bt709:space=bt709:fast=0[main];[1:v]settb=AVTB,setpts=PTS-STARTPTS,format=pix_fmts=yuv420p,fps=24000/1001,scale=1920:1080:flags=lanczos:param0=3:out_range=limited:out_color_matrix=bt709:out_chroma_loc=left,setsar=1.000,setdar=1.778,colorspace=format=yuv420p:range=tv:primaries=bt709:trc=bt709:space=bt709:fast=0[ref];[main][ref]psnr=eof_action=endall:stats_file='D\\:/Convert/FFMetrics/logs/psnr_logfile-6.txt'" -f null -
Input #0, matroska,webm, from 'F:\Convert\files\[DC] Make Heroine ga Oosugiru - 07_Telegram_HEVC(119).mkv':
  Metadata:
    COMPATIBLE_BRANDS: isomiso2avc1mp41
    MAJOR_BRAND     : isom
    MINOR_VERSION   : 512
    ENCODER         : Lavf61.7.100
  Duration: 00:24:06.79, start: -0.021000, bitrate: 1013 kb/s
  Stream #0:0: Video: hevc (Main 10), yuv420p10le(tv, bt709, progressive), 1920x1080 [SAR 1:1 DAR 16:9], 23.98 fps, 23.98 tbr, 1k tbn (default)
      Metadata:
        HANDLER_NAME    : VideoHandler
        VENDOR_ID       : [0][0][0][0]
        ENCODER         : Lavc61.19.100 libx265
        BPS             : 816104
        DURATION        : 00:24:06.569708333
        NUMBER_OF_FRAMES: 34683
        NUMBER_OF_BYTES : 147568881
        _STATISTICS_WRITING_APP: mkvpropedit v94.0 ('Initiate') 64-bit
        _STATISTICS_WRITING_DATE_UTC: 2026-01-12 15:46:20
        _STATISTICS_TAGS: BPS DURATION NUMBER_OF_FRAMES NUMBER_OF_BYTES
  Stream #0:1: Audio: aac (LC), 48000 Hz, stereo, fltp (default)
      Metadata:
        HANDLER_NAME    : SoundHandler
        VENDOR_ID       : [0][0][0][0]
        ENCODER         : Lavc61.19.100 aac
        BPS             : 193194
        DURATION        : 00:24:06.784000000
        NUMBER_OF_FRAMES: 67819
        NUMBER_OF_BYTES : 34938755
        _STATISTICS_WRITING_APP: mkvpropedit v94.0 ('Initiate') 64-bit
        _STATISTICS_WRITING_DATE_UTC: 2026-01-12 15:46:20
        _STATISTICS_TAGS: BPS DURATION NUMBER_OF_FRAMES NUMBER_OF_BYTES
Input #1, mov,mp4,m4a,3gp,3g2,mj2, from 'F:\Convert\files\[DC] Make Heroine ga Oosugiru - 07_Telegram.mp4':
  Metadata:
    major_brand     : isom
    minor_version   : 512
    compatible_brands: isomiso2avc1mp41
    encoder         : Lavf60.16.100
  Duration: 00:24:06.74, start: 0.000000, bitrate: 3764 kb/s
  Stream #1:0[0x1](und): Video: h264 (High) (avc1 / 0x31637661), yuv420p(tv, bt709, progressive), 1920x1080 [SAR 1:1 DAR 16:9], 3616 kb/s, 23.98 fps, 23.98 tbr, 24k tbn (default)
      Metadata:
        handler_name    : VideoHandler
        vendor_id       : [0][0][0][0]
        encoder         : Lavc60.31.102 h264_qsv
  Stream #1:1[0x2](und): Audio: aac (HE-AACv2) (mp4a / 0x6134706D), 48000 Hz, stereo, fltp, 144 kb/s (default)
      Metadata:
        handler_name    : SoundHandler
        vendor_id       : [0][0][0][0]
Stream mapping:
  Stream #0:0 (hevc) -> settb:default
  Stream #1:0 (h264) -> settb:default
  psnr:default -> Stream #0:0 (wrapped_avframe)
  Stream #0:1 -> #0:1 (aac (native) -> pcm_s16le (native))
Output #0, null, to 'pipe:':
  Metadata:
    COMPATIBLE_BRANDS: isomiso2avc1mp41
    MAJOR_BRAND     : isom
    MINOR_VERSION   : 512
    encoder         : Lavf61.7.100
  Stream #0:0: Video: wrapped_avframe, yuv420p10le(tv, bt709, progressive), 1920x1080 [SAR 1:1 DAR 16:9], q=2-31, 200 kb/s, 23.98 fps, 23.98 tbn
      Metadata:
        encoder         : Lavc61.19.100 wrapped_avframe
  Stream #0:1: Audio: pcm_s16le, 48000 Hz, stereo, s16, 1536 kb/s (default)
      Metadata:
        HANDLER_NAME    : SoundHandler
        VENDOR_ID       : [0][0][0][0]
        _STATISTICS_TAGS: BPS DURATION NUMBER_OF_FRAMES NUMBER_OF_BYTES
        BPS             : 193194
        DURATION        : 00:24:06.784000000
        NUMBER_OF_FRAMES: 67819
        NUMBER_OF_BYTES : 34938755
        _STATISTICS_WRITING_APP: mkvpropedit v94.0 ('Initiate') 64-bit
        _STATISTICS_WRITING_DATE_UTC: 2026-01-12 15:46:20
        encoder         : Lavc61.19.100 pcm_s16le
frame=  105 fps=0.0 q=-0.0 size=N/A time=00:00:04.37 bitrate=N/A speed=8.44x    frame=  283 fps=275 q=-0.0 size=N/A time=00:00:11.80 bitrate=N/A speed=11.5x    frame=  480 fps=312 q=-0.0 size=N/A time=00:00:20.02 bitrate=N/A speed=  13x    frame=  674 fps=329 q=-0.0 size=N/A time=00:00:28.11 bitrate=N/A speed=13.7x    frame=  859 fps=333 q=-0.0 size=N/A time=00:00:35.82 bitrate=N/A speed=13.9x    frame=  982 fps=318 q=-0.0 size=N/A time=00:00:40.95 bitrate=N/A speed=13.2x    frame= 1103 fps=306 q=-0.0 size=N/A time=00:00:46.00 bitrate=N/A speed=12.8x    frame= 1254 fps=305 q=-0.0 size=N/A time=00:00:52.30 bitrate=N/A speed=12.7x    frame= 1360 fps=293 q=-0.0 size=N/A time=00:00:56.72 bitrate=N/A speed=12.2x    frame= 1509 fps=293 q=-0.0 size=N/A time=00:01:02.93 bitrate=N/A speed=12.2x    frame= 1646 fps=291 q=-0.0 size=N/A time=00:01:08.65 bitrate=N/A speed=12.1x    frame= 1814 fps=293 q=-0.0 size=N/A time=00:01:15.65 bitrate=N/A speed=12.2x    frame= 1971 fps=294 q=-0.0 size=N/A time=00:01:22.20 bitrate=N/A speed=12.3x    frame= 2086 fps=289 q=-0.0 size=N/A time=00:01:27.00 bitrate=N/A speed=12.1x    frame= 2226 fps=288 q=-0.0 size=N/A time=00:01:32.84 bitrate=N/A speed=  12x    frame= 2374 fps=288 q=-0.0 size=N/A time=00:01:39.01 bitrate=N/A speed=  12x    frame= 2491 fps=285 q=-0.0 size=N/A time=00:01:43.89 bitrate=N/A speed=11.9x    frame= 2618 fps=282 q=-0.0 size=N/A time=00:01:49.19 bitrate=N/A speed=11.8x    frame= 2792 fps=285 q=-0.0 size=N/A time=00:01:56.44 bitrate=N/A speed=11.9x    frame= 2941 fps=285 q=-0.0 size=N/A time=00:02:02.66 bitrate=N/A speed=11.9x    frame= 3098 fps=286 q=-0.0 size=N/A time=00:02:09.21 bitrate=N/A speed=11.9x    frame= 3258 fps=287 q=-0.0 size=N/A time=00:02:15.88 bitrate=N/A speed=  12x    frame= 3416 fps=288 q=-0.0 size=N/A time=00:02:22.47 bitrate=N/A speed=  12x    frame= 3595 fps=291 q=-0.0 size=N/A time=00:02:29.94 bitrate=N/A speed=12.1x    frame= 3777 fps=293 q=-0.0 size=N/A time=00:02:37.53 bitrate=N/A speed=12.2x    frame= 3946 fps=295 q=-0.0 size=N/A time=00:02:44.58 bitrate=N/A speed=12.3x    frame= 4138 fps=297 q=-0.0 size=N/A time=00:02:52.58 bitrate=N/A speed=12.4x    frame= 4314 fps=299 q=-0.0 size=N/A time=00:02:59.92 bitrate=N/A speed=12.5x    frame= 4506 fps=301 q=-0.0 size=N/A time=00:03:07.93 bitrate=N/A speed=12.6x    frame= 4676 fps=302 q=-0.0 size=N/A time=00:03:15.02 bitrate=N/A speed=12.6x    frame= 4847 fps=303 q=-0.0 size=N/A time=00:03:22.16 bitrate=N/A speed=12.7x    frame= 5031 fps=305 q=-0.0 size=N/A time=00:03:29.83 bitrate=N/A speed=12.7x    frame= 5217 fps=307 q=-0.0 size=N/A time=00:03:37.59 bitrate=N/A speed=12.8x    frame= 5403 fps=308 q=-0.0 size=N/A time=00:03:45.35 bitrate=N/A speed=12.9x    frame= 5582 fps=309 q=-0.0 size=N/A time=00:03:52.81 bitrate=N/A speed=12.9x    frame= 5721 fps=308 q=-0.0 size=N/A time=00:03:58.61 bitrate=N/A speed=12.9x    frame= 5886 fps=309 q=-0.0 size=N/A time=00:04:05.49 bitrate=N/A speed=12.9x    frame= 6066 fps=310 q=-0.0 size=N/A time=00:04:13.00 bitrate=N/A speed=12.9x    frame= 6248 fps=311 q=-0.0 size=N/A time=00:04:20.59 bitrate=N/A speed=  13x    frame= 6424 fps=312 q=-0.0 size=N/A time=00:04:27.93 bitrate=N/A speed=  13x    frame= 6618 fps=313 q=-0.0 size=N/A time=00:04:36.02 bitrate=N/A speed=13.1x    frame= 6779 fps=313 q=-0.0 size=N/A time=00:04:42.74 bitrate=N/A speed=13.1x    frame= 6970 fps=314 q=-0.0 size=N/A time=00:04:50.70 bitrate=N/A speed=13.1x    frame= 7131 fps=314 q=-0.0 size=N/A time=00:04:57.42 bitrate=N/A speed=13.1x    frame= 7290 fps=314 q=-0.0 size=N/A time=00:05:04.05 bitrate=N/A speed=13.1x    frame= 7463 fps=315 q=-0.0 size=N/A time=00:05:11.26 bitrate=N/A speed=13.1x    frame= 7635 fps=315 q=-0.0 size=N/A time=00:05:18.44 bitrate=N/A speed=13.1x    frame= 7795 fps=315 q=-0.0 size=N/A time=00:05:25.11 bitrate=N/A speed=13.1x    frame= 7956 fps=315 q=-0.0 size=N/A time=00:05:31.83 bitrate=N/A speed=13.1x    frame= 8089 fps=314 q=-0.0 size=N/A time=00:05:37.37 bitrate=N/A speed=13.1x    frame= 8275 fps=315 q=-0.0 size=N/A time=00:05:45.13 bitrate=N/A speed=13.1x    frame= 8429 fps=314 q=-0.0 size=N/A time=00:05:51.55 bitrate=N/A speed=13.1x    frame= 8598 fps=314 q=-0.0 size=N/A time=00:05:58.60 bitrate=N/A speed=13.1x    frame= 8777 fps=315 q=-0.0 size=N/A time=00:06:06.07 bitrate=N/A speed=13.1x    frame= 8956 fps=316 q=-0.0 size=N/A time=00:06:13.53 bitrate=N/A speed=13.2x    frame= 9141 fps=316 q=-0.0 size=N/A time=00:06:21.25 bitrate=N/A speed=13.2x    frame= 9328 fps=317 q=-0.0 size=N/A time=00:06:29.05 bitrate=N/A speed=13.2x    frame= 9496 fps=317 q=-0.0 size=N/A time=00:06:36.06 bitrate=N/A speed=13.2x    frame= 9663 fps=317 q=-0.0 size=N/A time=00:06:43.02 bitrate=N/A speed=13.2x    frame= 9821 fps=317 q=-0.0 size=N/A time=00:06:49.61 bitrate=N/A speed=13.2x    frame= 9993 fps=318 q=-0.0 size=N/A time=00:06:56.79 bitrate=N/A speed=13.2x    frame=10177 fps=318 q=-0.0 size=N/A time=00:07:04.46 bitrate=N/A speed=13.3x    frame=10307 fps=317 q=-0.0 size=N/A time=00:07:09.88 bitrate=N/A speed=13.2x    frame=10466 fps=317 q=-0.0 size=N/A time=00:07:16.51 bitrate=N/A speed=13.2x    frame=10624 fps=317 q=-0.0 size=N/A time=00:07:23.10 bitrate=N/A speed=13.2x    frame=10794 fps=317 q=-0.0 size=N/A time=00:07:30.19 bitrate=N/A speed=13.2x    frame=10974 fps=317 q=-0.0 size=N/A time=00:07:37.70 bitrate=N/A speed=13.2x    frame=11152 fps=318 q=-0.0 size=N/A time=00:07:45.13 bitrate=N/A speed=13.3x    frame=11314 fps=318 q=-0.0 size=N/A time=00:07:51.88 bitrate=N/A speed=13.3x    frame=11512 fps=319 q=-0.0 size=N/A time=00:08:00.14 bitrate=N/A speed=13.3x    frame=11704 fps=319 q=-0.0 size=N/A time=00:08:08.15 bitrate=N/A speed=13.3x    frame=11878 fps=320 q=-0.0 size=N/A time=00:08:15.41 bitrate=N/A speed=13.3x    frame=12036 fps=320 q=-0.0 size=N/A time=00:08:22.00 bitrate=N/A speed=13.3x    frame=12221 fps=320 q=-0.0 size=N/A time=00:08:29.71 bitrate=N/A speed=13.4x    frame=12371 fps=320 q=-0.0 size=N/A time=00:08:35.97 bitrate=N/A speed=13.3x    frame=12539 fps=320 q=-0.0 size=N/A time=00:08:42.98 bitrate=N/A speed=13.3x    frame=12685 fps=319 q=-0.0 size=N/A time=00:08:49.07 bitrate=N/A speed=13.3x    frame=12847 fps=319 q=-0.0 size=N/A time=00:08:55.82 bitrate=N/A speed=13.3x    frame=13027 fps=320 q=-0.0 size=N/A time=00:09:03.33 bitrate=N/A speed=13.3x    frame=13197 fps=320 q=-0.0 size=N/A time=00:09:10.42 bitrate=N/A speed=13.3x    frame=13358 fps=320 q=-0.0 size=N/A time=00:09:17.13 bitrate=N/A speed=13.3x    frame=13524 fps=320 q=-0.0 size=N/A time=00:09:24.06 bitrate=N/A speed=13.3x    frame=13705 fps=320 q=-0.0 size=N/A time=00:09:31.61 bitrate=N/A speed=13.3x    frame=13865 fps=320 q=-0.0 size=N/A time=00:09:38.28 bitrate=N/A speed=13.3x    frame=14009 fps=319 q=-0.0 size=N/A time=00:09:44.29 bitrate=N/A speed=13.3x    frame=14166 fps=319 q=-0.0 size=N/A time=00:09:50.84 bitrate=N/A speed=13.3x    frame=14341 fps=319 q=-0.0 size=N/A time=00:09:58.13 bitrate=N/A speed=13.3x    frame=14506 fps=319 q=-0.0 size=N/A time=00:10:05.02 bitrate=N/A speed=13.3x    frame=14679 fps=320 q=-0.0 size=N/A time=00:10:12.23 bitrate=N/A speed=13.3x    frame=14858 fps=320 q=-0.0 size=N/A time=00:10:19.70 bitrate=N/A speed=13.3x    frame=15044 fps=320 q=-0.0 size=N/A time=00:10:27.46 bitrate=N/A speed=13.4x    frame=15180 fps=320 q=-0.0 size=N/A time=00:10:33.13 bitrate=N/A speed=13.3x    frame=15357 fps=320 q=-0.0 size=N/A time=00:10:40.51 bitrate=N/A speed=13.3x    frame=15536 fps=320 q=-0.0 size=N/A time=00:10:47.98 bitrate=N/A speed=13.4x    frame=15720 fps=321 q=-0.0 size=N/A time=00:10:55.65 bitrate=N/A speed=13.4x    frame=15893 fps=321 q=-0.0 size=N/A time=00:11:02.87 bitrate=N/A speed=13.4x    frame=16083 fps=321 q=-0.0 size=N/A time=00:11:10.79 bitrate=N/A speed=13.4x    frame=16229 fps=321 q=-0.0 size=N/A time=00:11:16.88 bitrate=N/A speed=13.4x    frame=16420 fps=321 q=-0.0 size=N/A time=00:11:24.85 bitrate=N/A speed=13.4x    frame=16596 fps=322 q=-0.0 size=N/A time=00:11:32.19 bitrate=N/A speed=13.4x    frame=16787 fps=322 q=-0.0 size=N/A time=00:11:40.15 bitrate=N/A speed=13.4x    frame=16949 fps=322 q=-0.0 size=N/A time=00:11:46.91 bitrate=N/A speed=13.4x    frame=17123 fps=322 q=-0.0 size=N/A time=00:11:54.17 bitrate=N/A speed=13.4x    frame=17284 fps=322 q=-0.0 size=N/A time=00:12:00.88 bitrate=N/A speed=13.4x    frame=17475 fps=323 q=-0.0 size=N/A time=00:12:08.85 bitrate=N/A speed=13.5x    frame=17641 fps=322 q=-0.0 size=N/A time=00:12:15.77 bitrate=N/A speed=13.5x    frame=17815 fps=323 q=-0.0 size=N/A time=00:12:23.03 bitrate=N/A speed=13.5x    frame=17985 fps=323 q=-0.0 size=N/A time=00:12:30.12 bitrate=N/A speed=13.5x    frame=18153 fps=323 q=-0.0 size=N/A time=00:12:37.13 bitrate=N/A speed=13.5x    frame=18298 fps=322 q=-0.0 size=N/A time=00:12:43.17 bitrate=N/A speed=13.4x    frame=18468 fps=322 q=-0.0 size=N/A time=00:12:50.26 bitrate=N/A speed=13.4x    frame=18615 fps=322 q=-0.0 size=N/A time=00:12:56.40 bitrate=N/A speed=13.4x    frame=18793 fps=322 q=-0.0 size=N/A time=00:13:03.82 bitrate=N/A speed=13.4x    frame=18971 fps=322 q=-0.0 size=N/A time=00:13:11.24 bitrate=N/A speed=13.5x    frame=19143 fps=323 q=-0.0 size=N/A time=00:13:18.42 bitrate=N/A speed=13.5x    frame=19318 fps=323 q=-0.0 size=N/A time=00:13:25.72 bitrate=N/A speed=13.5x    frame=19475 fps=323 q=-0.0 size=N/A time=00:13:32.26 bitrate=N/A speed=13.5x    frame=19667 fps=323 q=-0.0 size=N/A time=00:13:40.27 bitrate=N/A speed=13.5x    frame=19863 fps=323 q=-0.0 size=N/A time=00:13:48.45 bitrate=N/A speed=13.5x    frame=20056 fps=324 q=-0.0 size=N/A time=00:13:56.50 bitrate=N/A speed=13.5x    frame=20227 fps=324 q=-0.0 size=N/A time=00:14:03.63 bitrate=N/A speed=13.5x    frame=20411 fps=324 q=-0.0 size=N/A time=00:14:11.30 bitrate=N/A speed=13.5x    frame=20545 fps=324 q=-0.0 size=N/A time=00:14:16.89 bitrate=N/A speed=13.5x    frame=20696 fps=324 q=-0.0 size=N/A time=00:14:23.19 bitrate=N/A speed=13.5x    frame=20844 fps=323 q=-0.0 size=N/A time=00:14:29.36 bitrate=N/A speed=13.5x    frame=21026 fps=323 q=-0.0 size=N/A time=00:14:36.95 bitrate=N/A speed=13.5x    frame=21209 fps=324 q=-0.0 size=N/A time=00:14:44.59 bitrate=N/A speed=13.5x    frame=21399 fps=324 q=-0.0 size=N/A time=00:14:52.51 bitrate=N/A speed=13.5x    frame=21572 fps=324 q=-0.0 size=N/A time=00:14:59.73 bitrate=N/A speed=13.5x    frame=21764 fps=324 q=-0.0 size=N/A time=00:15:07.74 bitrate=N/A speed=13.5x    frame=21940 fps=325 q=-0.0 size=N/A time=00:15:15.08 bitrate=N/A speed=13.5x    frame=22129 fps=325 q=-0.0 size=N/A time=00:15:22.96 bitrate=N/A speed=13.6x    frame=22321 fps=325 q=-0.0 size=N/A time=00:15:30.97 bitrate=N/A speed=13.6x    frame=22519 fps=326 q=-0.0 size=N/A time=00:15:39.22 bitrate=N/A speed=13.6x    frame=22701 fps=326 q=-0.0 size=N/A time=00:15:46.82 bitrate=N/A speed=13.6x    frame=22888 fps=326 q=-0.0 size=N/A time=00:15:54.62 bitrate=N/A speed=13.6x    frame=23019 fps=326 q=-0.0 size=N/A time=00:16:00.08 bitrate=N/A speed=13.6x    frame=23187 fps=326 q=-0.0 size=N/A time=00:16:07.09 bitrate=N/A speed=13.6x    frame=23347 fps=326 q=-0.0 size=N/A time=00:16:13.76 bitrate=N/A speed=13.6x    frame=23535 fps=326 q=-0.0 size=N/A time=00:16:21.60 bitrate=N/A speed=13.6x    frame=23719 fps=326 q=-0.0 size=N/A time=00:16:29.27 bitrate=N/A speed=13.6x    frame=23903 fps=326 q=-0.0 size=N/A time=00:16:36.95 bitrate=N/A speed=13.6x    frame=24081 fps=326 q=-0.0 size=N/A time=00:16:44.37 bitrate=N/A speed=13.6x    frame=24264 fps=327 q=-0.0 size=N/A time=00:16:52.01 bitrate=N/A speed=13.6x    frame=24432 fps=327 q=-0.0 size=N/A time=00:16:59.01 bitrate=N/A speed=13.6x    frame=24610 fps=327 q=-0.0 size=N/A time=00:17:06.44 bitrate=N/A speed=13.6x    frame=24775 fps=327 q=-0.0 size=N/A time=00:17:13.32 bitrate=N/A speed=13.6x    frame=24917 fps=326 q=-0.0 size=N/A time=00:17:19.24 bitrate=N/A speed=13.6x    frame=25057 fps=326 q=-0.0 size=N/A time=00:17:25.08 bitrate=N/A speed=13.6x    frame=25236 fps=326 q=-0.0 size=N/A time=00:17:32.55 bitrate=N/A speed=13.6x    frame=25413 fps=326 q=-0.0 size=N/A time=00:17:39.93 bitrate=N/A speed=13.6x    frame=25572 fps=326 q=-0.0 size=N/A time=00:17:46.56 bitrate=N/A speed=13.6x    frame=25762 fps=326 q=-0.0 size=N/A time=00:17:54.49 bitrate=N/A speed=13.6x    frame=25954 fps=327 q=-0.0 size=N/A time=00:18:02.49 bitrate=N/A speed=13.6x    frame=26149 fps=327 q=-0.0 size=N/A time=00:18:10.63 bitrate=N/A speed=13.6x    frame=26334 fps=327 q=-0.0 size=N/A time=00:18:18.34 bitrate=N/A speed=13.6x    frame=26538 fps=328 q=-0.0 size=N/A time=00:18:26.85 bitrate=N/A speed=13.7x    frame=26719 fps=328 q=-0.0 size=N/A time=00:18:34.40 bitrate=N/A speed=13.7x    frame=26916 fps=328 q=-0.0 size=N/A time=00:18:42.62 bitrate=N/A speed=13.7x    frame=27091 fps=328 q=-0.0 size=N/A time=00:18:49.92 bitrate=N/A speed=13.7x    frame=27271 fps=328 q=-0.0 size=N/A time=00:18:57.42 bitrate=N/A speed=13.7x    frame=27425 fps=328 q=-0.0 size=N/A time=00:19:03.85 bitrate=N/A speed=13.7x    frame=27604 fps=328 q=-0.0 size=N/A time=00:19:11.31 bitrate=N/A speed=13.7x    frame=27772 fps=328 q=-0.0 size=N/A time=00:19:18.32 bitrate=N/A speed=13.7x    frame=27942 fps=328 q=-0.0 size=N/A time=00:19:25.41 bitrate=N/A speed=13.7x    frame=28083 fps=328 q=-0.0 size=N/A time=00:19:31.29 bitrate=N/A speed=13.7x    frame=28258 fps=328 q=-0.0 size=N/A time=00:19:38.59 bitrate=N/A speed=13.7x    frame=28431 fps=328 q=-0.0 size=N/A time=00:19:45.80 bitrate=N/A speed=13.7x    frame=28600 fps=328 q=-0.0 size=N/A time=00:19:52.85 bitrate=N/A speed=13.7x    frame=28760 fps=328 q=-0.0 size=N/A time=00:19:59.53 bitrate=N/A speed=13.7x    frame=28929 fps=328 q=-0.0 size=N/A time=00:20:06.58 bitrate=N/A speed=13.7x    frame=29093 fps=328 q=-0.0 size=N/A time=00:20:13.42 bitrate=N/A speed=13.7x    frame=29274 fps=328 q=-0.0 size=N/A time=00:20:20.96 bitrate=N/A speed=13.7x    frame=29432 fps=328 q=-0.0 size=N/A time=00:20:27.55 bitrate=N/A speed=13.7x    frame=29571 fps=328 q=-0.0 size=N/A time=00:20:33.35 bitrate=N/A speed=13.7x    frame=29724 fps=327 q=-0.0 size=N/A time=00:20:39.73 bitrate=N/A speed=13.7x    frame=29876 fps=327 q=-0.0 size=N/A time=00:20:46.07 bitrate=N/A speed=13.6x    frame=30034 fps=327 q=-0.0 size=N/A time=00:20:52.66 bitrate=N/A speed=13.6x    frame=30202 fps=327 q=-0.0 size=N/A time=00:20:59.67 bitrate=N/A speed=13.6x    frame=30369 fps=327 q=-0.0 size=N/A time=00:21:06.64 bitrate=N/A speed=13.6x    frame=30542 fps=327 q=-0.0 size=N/A time=00:21:13.85 bitrate=N/A speed=13.6x    frame=30711 fps=327 q=-0.0 size=N/A time=00:21:20.90 bitrate=N/A speed=13.6x    frame=30890 fps=327 q=-0.0 size=N/A time=00:21:28.37 bitrate=N/A speed=13.6x    frame=31075 fps=327 q=-0.0 size=N/A time=00:21:36.08 bitrate=N/A speed=13.7x    frame=31275 fps=328 q=-0.0 size=N/A time=00:21:44.42 bitrate=N/A speed=13.7x    frame=31445 fps=328 q=-0.0 size=N/A time=00:21:51.51 bitrate=N/A speed=13.7x    frame=31617 fps=328 q=-0.0 size=N/A time=00:21:58.69 bitrate=N/A speed=13.7x    frame=31787 fps=328 q=-0.0 size=N/A time=00:22:05.78 bitrate=N/A speed=13.7x    frame=31940 fps=328 q=-0.0 size=N/A time=00:22:12.16 bitrate=N/A speed=13.7x    frame=32132 fps=328 q=-0.0 size=N/A time=00:22:20.17 bitrate=N/A speed=13.7x    frame=32330 fps=328 q=-0.0 size=N/A time=00:22:28.43 bitrate=N/A speed=13.7x    frame=32507 fps=328 q=-0.0 size=N/A time=00:22:35.81 bitrate=N/A speed=13.7x    frame=32636 fps=328 q=-0.0 size=N/A time=00:22:41.19 bitrate=N/A speed=13.7x    frame=32770 fps=327 q=-0.0 size=N/A time=00:22:46.78 bitrate=N/A speed=13.7x    frame=32922 fps=327 q=-0.0 size=N/A time=00:22:53.12 bitrate=N/A speed=13.6x    frame=33089 fps=327 q=-0.0 size=N/A time=00:23:00.08 bitrate=N/A speed=13.6x    frame=33258 fps=327 q=-0.0 size=N/A time=00:23:07.13 bitrate=N/A speed=13.6x    frame=33409 fps=327 q=-0.0 size=N/A time=00:23:13.43 bitrate=N/A speed=13.6x    frame=33558 fps=327 q=-0.0 size=N/A time=00:23:19.64 bitrate=N/A speed=13.6x    frame=33704 fps=327 q=-0.0 size=N/A time=00:23:25.73 bitrate=N/A speed=13.6x    frame=33774 fps=326 q=-0.0 size=N/A time=00:23:28.65 bitrate=N/A speed=13.6x    frame=33891 fps=325 q=-0.0 size=N/A time=00:23:33.53 bitrate=N/A speed=13.6x    frame=34037 fps=325 q=-0.0 size=N/A time=00:23:39.62 bitrate=N/A speed=13.6x    frame=34170 fps=325 q=-0.0 size=N/A time=00:23:45.17 bitrate=N/A speed=13.5x    frame=34296 fps=324 q=-0.0 size=N/A time=00:23:50.42 bitrate=N/A speed=13.5x    frame=34423 fps=324 q=-0.0 size=N/A time=00:23:55.72 bitrate=N/A speed=13.5x    frame=34593 fps=324 q=-0.0 size=N/A time=00:24:02.81 bitrate=N/A speed=13.5x    [Parsed_psnr_16 @ 00000226da846a40] PSNR y:49.171226 u:50.547866 v:50.614986 average:49.592348 min:37.949289 max:inf
[out#0/null @ 00000226cd2f8a00] video:14903KiB audio:271276KiB subtitle:0KiB other streams:0KiB global headers:0KiB muxing overhead: unknown
frame=34683 fps=324 q=-0.0 Lsize=N/A time=00:24:06.57 bitrate=N/A speed=13.5x    
